<?xml version="1.0" standalone="no"?>
<!DOCTYPE svg PUBLIC "-//W3C//DTD SVG 20010904//EN"
 "http://www.w3.org/TR/2001/REC-SVG-20010904/DTD/svg10.dtd">
<svg version="1.0" xmlns="http://www.w3.org/2000/svg"
 width="438.000000pt" height="438.000000pt" viewBox="0 0 438.000000 438.000000"
 preserveAspectRatio="xMidYMid meet">
<metadata>
Created by potrace 1.14, written by Peter Selinger 2001-2017
</metadata>
<g transform="translate(0.000000,438.000000) scale(0.100000,-0.100000)"
fill="#000000" stroke="none">
<path d="M485 3348 c-117 -245 -157 -407 -157 -633 1 -166 36 -325 108 -484
36 -78 142 -235 204 -300 28 -30 49 -58 48 -62 -2 -5 -31 4 -65 20 -233 111
-400 309 -492 587 -16 49 -33 111 -37 138 -5 37 -9 45 -16 32 -8 -15 -49 -201
-63 -291 -11 -68 -13 -326 -4 -415 21 -192 93 -396 192 -543 162 -240 472
-443 762 -497 63 -12 394 -9 450 4 164 38 255 70 366 127 80 42 85 55 7 20
-146 -66 -306 -98 -493 -99 -334 -1 -612 112 -834 338 -90 92 -88 90 -147 180
-83 129 -138 270 -169 434 -14 73 -27 236 -20 236 2 0 26 -30 53 -67 142 -191
353 -327 609 -392 177 -46 246 -36 259 37 10 52 -7 75 -101 136 -237 155 -415
414 -481 701 -34 147 -25 395 19 545 l13 45 19 -55 c97 -290 319 -544 590
-676 110 -53 128 -56 55 -8 -124 81 -222 171 -320 292 -164 203 -271 472 -274
689 0 51 -5 93 -9 93 -4 0 -37 -60 -72 -132z"/>
<path d="M2479 2371 c-12 -5 -15 -65 -14 -391 1 -420 3 -435 58 -488 44 -43
94 -51 282 -49 171 3 195 9 243 60 37 40 48 106 47 289 -1 156 -3 170 -26 214
-19 36 -36 54 -71 72 -43 22 -59 24 -208 25 -89 1 -167 -1 -172 -4 -6 -4 -11
-24 -11 -45 l-1 -39 159 -5 c106 -3 168 -9 183 -18 42 -24 52 -69 52 -223 0
-219 -13 -233 -215 -235 -146 -1 -182 10 -208 59 -17 34 -19 65 -20 408 l-2
372 -31 2 c-17 1 -37 -1 -45 -4z"/>
<path d="M1359 2099 c-10 -6 -11 -24 -10 -416 l1 -242 45 1 45 1 0 61 c1 33 1
161 1 284 l-1 222 175 0 175 0 0 -285 0 -285 43 3 42 2 2 270 c1 149 2 276 3
283 0 9 32 12 128 12 137 0 162 -7 195 -52 19 -25 20 -43 21 -270 l1 -243 46
-2 47 -2 -2 262 c-2 320 -8 340 -111 383 -35 14 -91 17 -438 18 -220 0 -403
-2 -408 -5z"/>
<path d="M3353 2088 c-54 -20 -70 -33 -90 -71 -24 -46 -26 -71 -27 -252 0
-196 11 -244 68 -283 53 -36 81 -40 309 -40 l217 0 0 44 0 44 -37 1 c-21 0
-117 1 -213 2 -193 2 -220 9 -241 65 -6 15 -11 98 -11 186 0 142 2 161 19 185
34 45 58 51 208 51 116 0 145 -3 165 -17 35 -24 36 -27 39 -87 2 -44 -2 -59
-22 -82 l-24 -28 -164 -2 c-90 -1 -166 -2 -169 -3 -5 -1 -5 -25 -1 -63 1 -5
83 -8 184 -8 153 0 188 3 217 18 52 25 71 71 69 162 -2 80 -11 112 -42 147
-32 36 -78 45 -249 46 -129 2 -170 -1 -205 -15z"/>
<path d="M4156 2098 c-65 -9 -107 -37 -136 -89 -24 -43 -25 -47 -26 -299 -1
-175 2 -257 10 -262 6 -4 27 -8 47 -8 l36 0 1 239 c0 179 3 246 14 268 22 46
69 63 181 63 l97 0 0 45 c0 44 -1 45 -32 46 -18 0 -58 1 -89 2 -31 1 -77 -1
-103 -5z"/>
<path d="M2260 1154 c0 -144 3 -185 13 -181 6 2 12 15 13 28 1 13 2 29 2 34 1
7 54 10 150 9 81 -1 150 -2 153 -3 3 -1 5 -11 4 -23 -2 -28 4 -48 16 -48 5 0
9 83 9 185 0 146 -3 185 -13 185 -10 0 -13 -30 -13 -135 l1 -135 -155 0 -156
0 1 135 c0 103 -3 135 -12 135 -10 0 -13 -42 -13 -186z"/>
<path d="M2773 1230 c-80 -49 -96 -152 -33 -218 80 -84 210 -52 240 59 13 48
6 88 -22 124 -44 56 -126 71 -185 35z m112 -9 c23 -4 58 -44 70 -79 38 -108
-100 -201 -185 -124 -40 36 -51 78 -34 127 22 65 69 89 149 76z"/>
<path d="M3067 1243 c-11 -11 -8 -178 4 -212 21 -60 112 -85 182 -49 33 16 37
17 37 2 0 -8 6 -14 13 -12 19 7 20 268 1 268 -11 0 -14 -21 -14 -101 0 -68 -4
-105 -13 -113 -35 -36 -105 -49 -144 -28 -37 20 -47 52 -48 149 -1 90 -5 110
-18 96z"/>
<path d="M3445 1241 c-36 -15 -50 -44 -46 -89 2 -20 59 -49 110 -57 83 -12
111 -45 71 -85 -24 -24 -110 -28 -152 -6 -25 13 -38 12 -38 -4 0 -4 12 -12 28
-18 116 -46 238 6 200 86 -13 27 -26 33 -140 62 -54 14 -70 40 -43 70 24 26
76 33 124 16 43 -14 62 -7 36 14 -18 15 -123 23 -150 11z"/>
<path d="M3780 1242 c-39 -18 -69 -46 -79 -74 -25 -70 -3 -147 52 -183 53 -34
157 -20 185 26 19 30 6 36 -22 10 -25 -24 -81 -37 -119 -27 -31 7 -77 54 -77
77 0 18 10 19 120 19 125 0 125 0 120 45 -9 80 -109 139 -180 107z m85 -23
c29 -9 75 -65 75 -92 0 -9 -27 -12 -112 -12 -106 0 -113 1 -110 19 8 45 58 91
101 93 9 1 30 -3 46 -8z"/>
</g>
</svg>
